/* XPM */
static char * CC_L_goin_R_adda_xpm[] = {
"32 32 4 1",
" 	c None",
".	c #000000",
"+	c #ED0D47",
"@	c #FFFFFF",
"                                ",
"                                ",
"                                ",
"                                ",
"                                ",
"                                ",
"                                ",
"                                ",
"                                ",
"                                ",
"                                ",
"                                ",
"                                ",
"                                ",
"                                ",
"              ..+.              ",
"           .....  .             ",
"         ...  .    .            ",
"              .     .           ",
"          .. ..      .          ",
"    .    ..  .        . .       ",
"   ..   ..   .         ..       ",
"  ..   ..             ...       ",
" ..   ..                 .....  ",
" .   ..                 ....... ",
"  .  .                 ...@@@...",
"   .     ..            ..@@@@@..",
"    .   ..             ..@@@@@..",
"     . ..              ..@@@@@..",
"      ..               ...@@@...",
"                        ....... ",
"                         .....  "};
